# xmcd
#
# Track frame offsets: 
#        150
#        31442
#        48276
#        60808
#        85295
#        102735
#        118456
#        135307
#        157387
#        177705
#        191920
#        208090
#
# Disc length: 3001 seconds
#
# Revision: 0
# Processed by: cddbd v1.5.1PL0 Copyright (c) Steve Scherf et al.
# Submitted via: ExactAudioCopy v0.95a5
#
DISCID=b70bb70c
DTITLE=Lightnin' Hopkins - Free Form Patterns
DYEAR=1968
DGENRE=Blues
TTITLE0=Mr. Charlie
TTITLE1=Give Me Time to Think
TTITLE2=Fox Chase
TTITLE3=Mr. Ditta's Grocery Store
TTITLE4=Open Up Your Door
TTITLE5=Baby Child
TTITLE6=Cooking's Done
TTITLE7=Got Her Letter This Morning
TTITLE8=Rain Falling
TTITLE9=Mini Skirt
TTITLE10=Conversations With Mr. Hopkins [*]
TTITLE11=Black Ghost [*]
EXTD=
EXTT0=
EXTT1=
EXTT2=
EXTT3=
EXTT4=
EXTT5=
EXTT6=
EXTT7=
EXTT8=
EXTT9=
EXTT10=
EXTT11=
PLAYORDER=
